REM DIRINDEX 1\2,1\3,1\4,1\5
REM DIRNAME folder01,folder02,folder03,folder04,folder05
TITLE ""
FILE "1Q_t_0403-0412.mp3" MP3
  TRACK 01 AUDIO
    TITLE "3:cjc004_2110"
    INDEX 01 00:00:00
  TRACK 02 AUDIO
    TITLE "0:"
    INDEX 01 00:00:68
  TRACK 03 AUDIO
    TITLE "4:cjc004_2111"
    INDEX 01 00:01:22
  TRACK 04 AUDIO
    TITLE "0:"
    INDEX 01 00:02:24
  TRACK 05 AUDIO
    TITLE "5:cjc004_2112"
    INDEX 01 00:02:49
  TRACK 06 AUDIO
    TITLE "0:"
    INDEX 01 00:06:57
  TRACK 07 AUDIO
    TITLE "3:cjc004_2113"
    INDEX 01 00:07:43
  TRACK 08 AUDIO
    TITLE "0:"
    INDEX 01 00:08:48
  TRACK 09 AUDIO
    TITLE "4:cjc004_2114"
    INDEX 01 00:09:00
  TRACK 10 AUDIO
    TITLE "0:"
    INDEX 01 00:09:65
  TRACK 11 AUDIO
    TITLE "5:cjc004_2115"
    INDEX 01 00:10:16
  TRACK 12 AUDIO
    TITLE "0:"
    INDEX 01 00:13:65
  TRACK 13 AUDIO
    TITLE "3:cjc004_2116"
    INDEX 01 00:14:47
  TRACK 14 AUDIO
    TITLE "0:"
    INDEX 01 00:15:66
  TRACK 15 AUDIO
    TITLE "4:cjc004_2117"
    INDEX 01 00:16:22
  TRACK 16 AUDIO
    TITLE "0:"
    INDEX 01 00:17:33
  TRACK 17 AUDIO
    TITLE "5:cjc004_2118"
    INDEX 01 00:17:61
  TRACK 18 AUDIO
    TITLE "0:"
    INDEX 01 00:22:72
  TRACK 19 AUDIO
    TITLE "3:cjc004_2119"
    INDEX 01 00:23:53
  TRACK 20 AUDIO
    TITLE "0:"
    INDEX 01 00:24:63
  TRACK 21 AUDIO
    TITLE "4:cjc004_2120"
    INDEX 01 00:25:15
  TRACK 22 AUDIO
    TITLE "0:"
    INDEX 01 00:26:24
  TRACK 23 AUDIO
    TITLE "5:cjc004_2121"
    INDEX 01 00:26:50
  TRACK 24 AUDIO
    TITLE "0:"
    INDEX 01 00:30:71
  TRACK 25 AUDIO
    TITLE "3:cjc004_2122"
    INDEX 01 00:31:55
  TRACK 26 AUDIO
    TITLE "0:"
    INDEX 01 00:32:66
  TRACK 27 AUDIO
    TITLE "4:cjc004_2123"
    INDEX 01 00:33:21
  TRACK 28 AUDIO
    TITLE "0:"
    INDEX 01 00:34:47
  TRACK 29 AUDIO
    TITLE "5:cjc004_2124"
    INDEX 01 00:34:73
  TRACK 30 AUDIO
    TITLE "0:"
    INDEX 01 00:38:65
  TRACK 31 AUDIO
    TITLE "3:cjc004_2125"
    INDEX 01 00:39:45
  TRACK 32 AUDIO
    TITLE "0:"
    INDEX 01 00:40:42
  TRACK 33 AUDIO
    TITLE "4:cjc004_2126"
    INDEX 01 00:40:70
  TRACK 34 AUDIO
    TITLE "0:"
    INDEX 01 00:42:06
  TRACK 35 AUDIO
    TITLE "5:cjc004_2127"
    INDEX 01 00:42:29
  TRACK 36 AUDIO
    TITLE "0:"
    INDEX 01 00:48:24
  TRACK 37 AUDIO
    TITLE "3:cjc004_2128"
    INDEX 01 00:49:08
  TRACK 38 AUDIO
    TITLE "0:"
    INDEX 01 00:50:21
  TRACK 39 AUDIO
    TITLE "4:cjc004_2129"
    INDEX 01 00:50:44
  TRACK 40 AUDIO
    TITLE "0:"
    INDEX 01 00:52:00
  TRACK 41 AUDIO
    TITLE "5:cjc004_2130"
    INDEX 01 00:52:26
  TRACK 42 AUDIO
    TITLE "0:"
    INDEX 01 00:57:39
  TRACK 43 AUDIO
    TITLE "3:cjc004_2131"
    INDEX 01 00:58:17
  TRACK 44 AUDIO
    TITLE "0:"
    INDEX 01 00:59:32
  TRACK 45 AUDIO
    TITLE "4:cjc004_2132"
    INDEX 01 00:59:65
  TRACK 46 AUDIO
    TITLE "0:"
    INDEX 01 01:01:03
  TRACK 47 AUDIO
    TITLE "5:cjc004_2133"
    INDEX 01 01:01:31
  TRACK 48 AUDIO
    TITLE "0:"
    INDEX 01 01:07:45
  TRACK 49 AUDIO
    TITLE "3:cjc004_2134"
    INDEX 01 01:08:29
  TRACK 50 AUDIO
    TITLE "0:"
    INDEX 01 01:09:54
  TRACK 51 AUDIO
    TITLE "4:cjc004_2135"
    INDEX 01 01:10:02
  TRACK 52 AUDIO
    TITLE "0:"
    INDEX 01 01:11:23
  TRACK 53 AUDIO
    TITLE "5:cjc004_2136"
    INDEX 01 01:11:47
  TRACK 54 AUDIO
    TITLE "0:"
    INDEX 01 01:17:24
  TRACK 55 AUDIO
    TITLE "3:cjc004_2137"
    INDEX 01 01:18:07
  TRACK 56 AUDIO
    TITLE "0:"
    INDEX 01 01:19:27
  TRACK 57 AUDIO
    TITLE "4:cjc004_2138"
    INDEX 01 01:19:54
  TRACK 58 AUDIO
    TITLE "0:"
    INDEX 01 01:21:21
  TRACK 59 AUDIO
    TITLE "5:cjc004_2139"
    INDEX 01 01:21:45
  TRACK 60 AUDIO
    TITLE "0:"
    INDEX 01 01:25:47
